<svg width="150" height="100" viewBox="0 0 150 100" fill="none" xmlns="http://www.w3.org/2000/svg">
<g clip-path="url(#clip0_136_2)">
<rect width="150" height="100" rx="3" fill="white"/>
<rect x="-51.9503" y="43.3151" width="93.0252" height="154.27" transform="rotate(-39.952 -51.9503 43.3151)" fill="#C92929"/>
<rect x="30.9839" y="-2.54572" width="90.2058" height="155.148" transform="rotate(-39.952 30.9839 -2.54572)" fill="#F73636"/>
<g filter="url(#filter0_ddd_136_2)">
<path d="M23.5479 21.224C23.5479 23.08 22.9079 24.6267 21.6279 25.864C20.3692 27.08 18.4385 27.688 15.8359 27.688H11.5479V37H8.63588V14.696H15.8359C18.3532 14.696 20.2625 15.304 21.5639 16.52C22.8865 17.736 23.5479 19.304 23.5479 21.224ZM15.8359 25.288C17.4572 25.288 18.6519 24.936 19.4199 24.232C20.1879 23.528 20.5719 22.5253 20.5719 21.224C20.5719 18.472 18.9932 17.096 15.8359 17.096H11.5479V25.288H15.8359ZM37.2791 37.224C35.2098 37.224 33.3218 36.744 31.6151 35.784C29.9085 34.8027 28.5538 33.448 27.5511 31.72C26.5698 29.9707 26.0791 28.008 26.0791 25.832C26.0791 23.656 26.5698 21.704 27.5511 19.976C28.5538 18.2267 29.9085 16.872 31.6151 15.912C33.3218 14.9307 35.2098 14.44 37.2791 14.44C39.3698 14.44 41.2685 14.9307 42.9751 15.912C44.6818 16.872 46.0258 18.216 47.0071 19.944C47.9885 21.672 48.4791 23.6347 48.4791 25.832C48.4791 28.0293 47.9885 29.992 47.0071 31.72C46.0258 33.448 44.6818 34.8027 42.9751 35.784C41.2685 36.744 39.3698 37.224 37.2791 37.224ZM37.2791 34.696C38.8365 34.696 40.2338 34.3333 41.4711 33.608C42.7298 32.8827 43.7111 31.848 44.4151 30.504C45.1405 29.16 45.5031 27.6027 45.5031 25.832C45.5031 24.04 45.1405 22.4827 44.4151 21.16C43.7111 19.816 42.7405 18.7813 41.5031 18.056C40.2658 17.3307 38.8578 16.968 37.2791 16.968C35.7005 16.968 34.2925 17.3307 33.0551 18.056C31.8178 18.7813 30.8365 19.816 30.1111 21.16C29.4071 22.4827 29.0551 24.04 29.0551 25.832C29.0551 27.6027 29.4071 29.16 30.1111 30.504C30.8365 31.848 31.8178 32.8827 33.0551 33.608C34.3138 34.3333 35.7218 34.696 37.2791 34.696ZM67.2354 21.224C67.2354 23.08 66.5954 24.6267 65.3154 25.864C64.0567 27.08 62.126 27.688 59.5234 27.688H55.2354V37H52.3234V14.696H59.5234C62.0407 14.696 63.95 15.304 65.2514 16.52C66.574 17.736 67.2354 19.304 67.2354 21.224ZM59.5234 25.288C61.1447 25.288 62.3394 24.936 63.1074 24.232C63.8754 23.528 64.2594 22.5253 64.2594 21.224C64.2594 18.472 62.6807 17.096 59.5234 17.096H55.2354V25.288H59.5234ZM73.7026 14.696V28.808C73.7026 30.792 74.1826 32.264 75.1426 33.224C76.124 34.184 77.4786 34.664 79.2066 34.664C80.9133 34.664 82.2466 34.184 83.2066 33.224C84.188 32.264 84.6786 30.792 84.6786 28.808V14.696H87.5906V28.776C87.5906 30.632 87.2173 32.2 86.4706 33.48C85.724 34.7387 84.7106 35.6773 83.4306 36.296C82.172 36.9147 80.7533 37.224 79.1746 37.224C77.596 37.224 76.1666 36.9147 74.8866 36.296C73.628 35.6773 72.6253 34.7387 71.8786 33.48C71.1533 32.2 70.7906 30.632 70.7906 28.776V14.696H73.7026ZM95.3604 34.632H103.168V37H92.4484V14.696H95.3604V34.632ZM119.445 32.04H109.717L107.925 37H104.853L112.917 14.824H116.277L124.309 37H121.237L119.445 32.04ZM118.613 29.672L114.581 18.408L110.549 29.672H118.613ZM139.567 37L134.255 27.88H130.735V37H127.823V14.696H135.023C136.709 14.696 138.127 14.984 139.279 15.56C140.453 16.136 141.327 16.9147 141.903 17.896C142.479 18.8773 142.767 19.9973 142.767 21.256C142.767 22.792 142.319 24.1467 141.423 25.32C140.549 26.4933 139.226 27.272 137.455 27.656L143.055 37H139.567ZM130.735 25.544H135.023C136.602 25.544 137.786 25.16 138.575 24.392C139.365 23.6027 139.759 22.5573 139.759 21.256C139.759 19.9333 139.365 18.9093 138.575 18.184C137.807 17.4587 136.623 17.096 135.023 17.096H130.735V25.544ZM32.7929 62.696L26.3289 85H23.0649L17.8809 67.048L12.5049 85L9.27288 85.032L3.03288 62.696H6.13688L11.0009 81.608L16.3769 62.696H19.6409L24.7609 81.544L29.6569 62.696H32.7929ZM38.8916 65.064V72.52H47.0196V74.92H38.8916V82.6H47.9796V85H35.9796V62.664H47.9796V65.064H38.8916ZM63.5539 73.512C64.3645 73.64 65.1005 73.9707 65.7619 74.504C66.4445 75.0373 66.9779 75.6987 67.3619 76.488C67.7672 77.2773 67.9699 78.12 67.9699 79.016C67.9699 80.1467 67.6819 81.1707 67.1059 82.088C66.5299 82.984 65.6872 83.6987 64.5779 84.232C63.4899 84.744 62.1992 85 60.7059 85H52.3859V62.696H60.3859C61.9005 62.696 63.1912 62.952 64.2579 63.464C65.3245 63.9547 66.1245 64.6267 66.6579 65.48C67.1912 66.3333 67.4579 67.2933 67.4579 68.36C67.4579 69.6827 67.0952 70.7813 66.3699 71.656C65.6659 72.5093 64.7272 73.128 63.5539 73.512ZM55.2979 72.328H60.1939C61.5592 72.328 62.6152 72.008 63.3619 71.368C64.1085 70.728 64.4819 69.8427 64.4819 68.712C64.4819 67.5813 64.1085 66.696 63.3619 66.056C62.6152 65.416 61.5379 65.096 60.1299 65.096H55.2979V72.328ZM60.4499 82.6C61.9005 82.6 63.0312 82.2587 63.8419 81.576C64.6525 80.8933 65.0579 79.944 65.0579 78.728C65.0579 77.4907 64.6312 76.52 63.7779 75.816C62.9245 75.0907 61.7832 74.728 60.3539 74.728H55.2979V82.6H60.4499ZM79.0829 85.224C77.6109 85.224 76.2882 84.968 75.1149 84.456C73.9629 83.9227 73.0562 83.1973 72.3949 82.28C71.7335 81.3413 71.3922 80.264 71.3709 79.048H74.4749C74.5815 80.0933 75.0082 80.9787 75.7549 81.704C76.5229 82.408 77.6322 82.76 79.0829 82.76C80.4695 82.76 81.5575 82.4187 82.3469 81.736C83.1575 81.032 83.5629 80.136 83.5629 79.048C83.5629 78.1947 83.3282 77.5013 82.8589 76.968C82.3895 76.4347 81.8029 76.0293 81.0989 75.752C80.3949 75.4747 79.4455 75.176 78.2509 74.856C76.7789 74.472 75.5949 74.088 74.6989 73.704C73.8242 73.32 73.0669 72.7227 72.4269 71.912C71.8082 71.08 71.4989 69.9707 71.4989 68.584C71.4989 67.368 71.8082 66.2907 72.4269 65.352C73.0455 64.4133 73.9095 63.688 75.0189 63.176C76.1495 62.664 77.4402 62.408 78.8909 62.408C80.9815 62.408 82.6882 62.9307 84.0109 63.976C85.3549 65.0213 86.1122 66.408 86.2829 68.136H83.0829C82.9762 67.2827 82.5282 66.536 81.7389 65.896C80.9495 65.2347 79.9042 64.904 78.6029 64.904C77.3869 64.904 76.3949 65.224 75.6269 65.864C74.8589 66.4827 74.4749 67.3573 74.4749 68.488C74.4749 69.2987 74.6989 69.96 75.1469 70.472C75.6162 70.984 76.1815 71.3787 76.8429 71.656C77.5255 71.912 78.4749 72.2107 79.6909 72.552C81.1629 72.9573 82.3469 73.3627 83.2429 73.768C84.1389 74.152 84.9069 74.76 85.5469 75.592C86.1869 76.4027 86.5069 77.512 86.5069 78.92C86.5069 80.008 86.2189 81.032 85.6429 81.992C85.0669 82.952 84.2135 83.7307 83.0829 84.328C81.9522 84.9253 80.6189 85.224 79.0829 85.224ZM93.7041 62.696V85H90.7921V62.696H93.7041ZM112.395 62.696V65.064H106.315V85H103.403V65.064H97.2911V62.696H112.395ZM118.892 65.064V72.52H127.02V74.92H118.892V82.6H127.98V85H115.98V62.664H127.98V65.064H118.892ZM139.458 85.224C137.986 85.224 136.663 84.968 135.49 84.456C134.338 83.9227 133.431 83.1973 132.77 82.28C132.109 81.3413 131.767 80.264 131.746 79.048H134.85C134.957 80.0933 135.383 80.9787 136.13 81.704C136.898 82.408 138.007 82.76 139.458 82.76C140.845 82.76 141.933 82.4187 142.722 81.736C143.533 81.032 143.938 80.136 143.938 79.048C143.938 78.1947 143.703 77.5013 143.234 76.968C142.765 76.4347 142.178 76.0293 141.474 75.752C140.77 75.4747 139.821 75.176 138.626 74.856C137.154 74.472 135.97 74.088 135.074 73.704C134.199 73.32 133.442 72.7227 132.802 71.912C132.183 71.08 131.874 69.9707 131.874 68.584C131.874 67.368 132.183 66.2907 132.802 65.352C133.421 64.4133 134.285 63.688 135.394 63.176C136.525 62.664 137.815 62.408 139.266 62.408C141.357 62.408 143.063 62.9307 144.386 63.976C145.73 65.0213 146.487 66.408 146.658 68.136H143.458C143.351 67.2827 142.903 66.536 142.114 65.896C141.325 65.2347 140.279 64.904 138.978 64.904C137.762 64.904 136.77 65.224 136.002 65.864C135.234 66.4827 134.85 67.3573 134.85 68.488C134.85 69.2987 135.074 69.96 135.522 70.472C135.991 70.984 136.557 71.3787 137.218 71.656C137.901 71.912 138.85 72.2107 140.066 72.552C141.538 72.9573 142.722 73.3627 143.618 73.768C144.514 74.152 145.282 74.76 145.922 75.592C146.562 76.4027 146.882 77.512 146.882 78.92C146.882 80.008 146.594 81.032 146.018 81.992C145.442 82.952 144.589 83.7307 143.458 84.328C142.327 84.9253 140.994 85.224 139.458 85.224Z" fill="white"/>
</g>
</g>
<defs>
<filter id="filter0_ddd_136_2" x="3.03284" y="14.44" width="146.849" height="73.784" filterUnits="userSpaceOnUse" color-interpolation-filters="sRGB">
<feFlood flood-opacity="0" result="BackgroundImageFix"/>
<feColorMatrix in="SourceAlpha" type="matrix" values="0 0 0 0 0 0 0 0 0 0 0 0 0 0 0 0 0 0 127 0" result="hardAlpha"/>
<feOffset dx="2" dy="2"/>
<feComposite in2="hardAlpha" operator="out"/>
<feColorMatrix type="matrix" values="0 0 0 0 1 0 0 0 0 1 0 0 0 0 1 0 0 0 0.3 0"/>
<feBlend mode="normal" in2="BackgroundImageFix" result="effect1_dropShadow_136_2"/>
<feColorMatrix in="SourceAlpha" type="matrix" values="0 0 0 0 0 0 0 0 0 0 0 0 0 0 0 0 0 0 127 0" result="hardAlpha"/>
<feOffset dx="1" dy="1"/>
<feComposite in2="hardAlpha" operator="out"/>
<feColorMatrix type="matrix" values="0 0 0 0 1 0 0 0 0 1 0 0 0 0 1 0 0 0 0.6 0"/>
<feBlend mode="normal" in2="effect1_dropShadow_136_2" result="effect2_dropShadow_136_2"/>
<feColorMatrix in="SourceAlpha" type="matrix" values="0 0 0 0 0 0 0 0 0 0 0 0 0 0 0 0 0 0 127 0" result="hardAlpha"/>
<feOffset dx="3" dy="3"/>
<feComposite in2="hardAlpha" operator="out"/>
<feColorMatrix type="matrix" values="0 0 0 0 1 0 0 0 0 1 0 0 0 0 1 0 0 0 0.1 0"/>
<feBlend mode="normal" in2="effect2_dropShadow_136_2" result="effect3_dropShadow_136_2"/>
<feBlend mode="normal" in="SourceGraphic" in2="effect3_dropShadow_136_2" result="shape"/>
</filter>
<clipPath id="clip0_136_2">
<rect width="150" height="100" rx="3" fill="white"/>
</clipPath>
</defs>
</svg>
