<svg width="150" height="100" viewBox="0 0 150 100" fill="none" xmlns="http://www.w3.org/2000/svg">
<g clip-path="url(#clip0_136_10)">
<rect width="150" height="100" rx="3" fill="white"/>
<rect x="-51.9503" y="43.315" width="93.0252" height="154.27" transform="rotate(-39.952 -51.9503 43.315)" fill="#141414"/>
<rect x="30.9839" y="-2.54575" width="90.2058" height="155.148" transform="rotate(-39.952 30.9839 -2.54575)" fill="#282828"/>
<g filter="url(#filter0_ddd_136_10)">
<path d="M33.0516 37.224C31.5796 37.224 30.257 36.968 29.0836 36.456C27.9316 35.9227 27.025 35.1973 26.3636 34.28C25.7023 33.3413 25.361 32.264 25.3396 31.048H28.4436C28.5503 32.0933 28.977 32.9787 29.7236 33.704C30.4916 34.408 31.601 34.76 33.0516 34.76C34.4383 34.76 35.5263 34.4187 36.3156 33.736C37.1263 33.032 37.5316 32.136 37.5316 31.048C37.5316 30.1947 37.297 29.5013 36.8276 28.968C36.3583 28.4347 35.7716 28.0293 35.0676 27.752C34.3636 27.4747 33.4143 27.176 32.2196 26.856C30.7476 26.472 29.5636 26.088 28.6676 25.704C27.793 25.32 27.0356 24.7227 26.3956 23.912C25.777 23.08 25.4676 21.9707 25.4676 20.584C25.4676 19.368 25.777 18.2907 26.3956 17.352C27.0143 16.4133 27.8783 15.688 28.9876 15.176C30.1183 14.664 31.409 14.408 32.8596 14.408C34.9503 14.408 36.657 14.9307 37.9796 15.976C39.3236 17.0213 40.081 18.408 40.2516 20.136H37.0516C36.945 19.2827 36.497 18.536 35.7076 17.896C34.9183 17.2347 33.873 16.904 32.5716 16.904C31.3556 16.904 30.3636 17.224 29.5956 17.864C28.8276 18.4827 28.4436 19.3573 28.4436 20.488C28.4436 21.2987 28.6676 21.96 29.1156 22.472C29.585 22.984 30.1503 23.3787 30.8116 23.656C31.4943 23.912 32.4436 24.2107 33.6596 24.552C35.1316 24.9573 36.3156 25.3627 37.2116 25.768C38.1076 26.152 38.8756 26.76 39.5156 27.592C40.1556 28.4027 40.4756 29.512 40.4756 30.92C40.4756 32.008 40.1876 33.032 39.6116 33.992C39.0356 34.952 38.1823 35.7307 37.0516 36.328C35.921 36.9253 34.5876 37.224 33.0516 37.224ZM47.6729 14.696V37H44.7609V14.696H47.6729ZM75.2599 14.856V37H72.3479V20.488L64.9879 37H62.9399L55.5479 20.456V37H52.6359V14.856H55.7719L63.9639 33.16L72.1559 14.856H75.2599ZM95.1104 21.224C95.1104 23.08 94.4704 24.6267 93.1904 25.864C91.9317 27.08 90.001 27.688 87.3984 27.688H83.1104V37H80.1984V14.696H87.3984C89.9157 14.696 91.825 15.304 93.1264 16.52C94.449 17.736 95.1104 19.304 95.1104 21.224ZM87.3984 25.288C89.0197 25.288 90.2144 24.936 90.9824 24.232C91.7504 23.528 92.1344 22.5253 92.1344 21.224C92.1344 18.472 90.5557 17.096 87.3984 17.096H83.1104V25.288H87.3984ZM101.642 34.632H109.45V37H98.7296V14.696H101.642V34.632ZM115.454 17.064V24.52H123.582V26.92H115.454V34.6H124.542V37H112.542V14.664H124.542V17.064H115.454ZM43.0017 62.696C45.4338 62.696 47.5351 63.1547 49.3058 64.072C51.0978 64.968 52.4631 66.2587 53.4018 67.944C54.3618 69.6293 54.8418 71.6133 54.8418 73.896C54.8418 76.1787 54.3618 78.1627 53.4018 79.848C52.4631 81.512 51.0978 82.792 49.3058 83.688C47.5351 84.5627 45.4338 85 43.0017 85H36.0578V62.696H43.0017ZM43.0017 82.6C45.8818 82.6 48.0791 81.8427 49.5938 80.328C51.1084 78.792 51.8658 76.648 51.8658 73.896C51.8658 71.1227 51.0978 68.9573 49.5618 67.4C48.0471 65.8427 45.8604 65.064 43.0017 65.064H38.9698V82.6H43.0017ZM71.8668 80.04H62.1388L60.3468 85H57.2747L65.3388 62.824H68.6988L76.7308 85H73.6588L71.8668 80.04ZM71.0348 77.672L67.0028 66.408L62.9708 77.672H71.0348ZM91.9893 85L86.6773 75.88H83.1573V85H80.2453V62.696H87.4453C89.1306 62.696 90.5493 62.984 91.7013 63.56C92.8746 64.136 93.7493 64.9147 94.3253 65.896C94.9013 66.8773 95.1893 67.9973 95.1893 69.256C95.1893 70.792 94.7413 72.1467 93.8453 73.32C92.9706 74.4933 91.6479 75.272 89.8773 75.656L95.4773 85H91.9893ZM83.1573 73.544H87.4453C89.0239 73.544 90.2079 73.16 90.9973 72.392C91.7866 71.6027 92.1813 70.5573 92.1813 69.256C92.1813 67.9333 91.7866 66.9093 90.9973 66.184C90.2293 65.4587 89.0453 65.096 87.4453 65.096H83.1573V73.544ZM111.81 85L102.626 74.824V85H99.714V62.696H102.626V73.032L111.842 62.696H115.522L105.41 73.864L115.618 85H111.81Z" fill="white"/>
</g>
</g>
<defs>
<filter id="filter0_ddd_136_10" x="25.3396" y="14.408" width="102.203" height="73.592" filterUnits="userSpaceOnUse" color-interpolation-filters="sRGB">
<feFlood flood-opacity="0" result="BackgroundImageFix"/>
<feColorMatrix in="SourceAlpha" type="matrix" values="0 0 0 0 0 0 0 0 0 0 0 0 0 0 0 0 0 0 127 0" result="hardAlpha"/>
<feOffset dx="2" dy="2"/>
<feComposite in2="hardAlpha" operator="out"/>
<feColorMatrix type="matrix" values="0 0 0 0 1 0 0 0 0 1 0 0 0 0 1 0 0 0 0.3 0"/>
<feBlend mode="normal" in2="BackgroundImageFix" result="effect1_dropShadow_136_10"/>
<feColorMatrix in="SourceAlpha" type="matrix" values="0 0 0 0 0 0 0 0 0 0 0 0 0 0 0 0 0 0 127 0" result="hardAlpha"/>
<feOffset dx="1" dy="1"/>
<feComposite in2="hardAlpha" operator="out"/>
<feColorMatrix type="matrix" values="0 0 0 0 1 0 0 0 0 1 0 0 0 0 1 0 0 0 0.6 0"/>
<feBlend mode="normal" in2="effect1_dropShadow_136_10" result="effect2_dropShadow_136_10"/>
<feColorMatrix in="SourceAlpha" type="matrix" values="0 0 0 0 0 0 0 0 0 0 0 0 0 0 0 0 0 0 127 0" result="hardAlpha"/>
<feOffset dx="3" dy="3"/>
<feComposite in2="hardAlpha" operator="out"/>
<feColorMatrix type="matrix" values="0 0 0 0 1 0 0 0 0 1 0 0 0 0 1 0 0 0 0.1 0"/>
<feBlend mode="normal" in2="effect2_dropShadow_136_10" result="effect3_dropShadow_136_10"/>
<feBlend mode="normal" in="SourceGraphic" in2="effect3_dropShadow_136_10" result="shape"/>
</filter>
<clipPath id="clip0_136_10">
<rect width="150" height="100" rx="3" fill="white"/>
</clipPath>
</defs>
</svg>
