<svg width="150" height="100" viewBox="0 0 150 100" fill="none" xmlns="http://www.w3.org/2000/svg">
<g clip-path="url(#clip0_136_6)">
<rect width="150" height="100" rx="3" fill="white"/>
<rect x="-51.9503" y="43.3151" width="93.0252" height="154.27" transform="rotate(-39.952 -51.9503 43.3151)" fill="#D9D9D9"/>
<rect x="30.9839" y="-2.54572" width="90.2058" height="155.148" transform="rotate(-39.952 30.9839 -2.54572)" fill="white"/>
<g filter="url(#filter0_ddd_136_6)">
<path d="M33.0516 37.224C31.5796 37.224 30.257 36.968 29.0836 36.456C27.9316 35.9227 27.025 35.1973 26.3636 34.28C25.7023 33.3413 25.361 32.264 25.3396 31.048H28.4436C28.5503 32.0933 28.977 32.9787 29.7236 33.704C30.4916 34.408 31.601 34.76 33.0516 34.76C34.4383 34.76 35.5263 34.4187 36.3156 33.736C37.1263 33.032 37.5316 32.136 37.5316 31.048C37.5316 30.1947 37.297 29.5013 36.8276 28.968C36.3583 28.4347 35.7716 28.0293 35.0676 27.752C34.3636 27.4747 33.4143 27.176 32.2196 26.856C30.7476 26.472 29.5636 26.088 28.6676 25.704C27.793 25.32 27.0356 24.7227 26.3956 23.912C25.777 23.08 25.4676 21.9707 25.4676 20.584C25.4676 19.368 25.777 18.2907 26.3956 17.352C27.0143 16.4133 27.8783 15.688 28.9876 15.176C30.1183 14.664 31.409 14.408 32.8596 14.408C34.9503 14.408 36.657 14.9307 37.9796 15.976C39.3236 17.0213 40.081 18.408 40.2516 20.136H37.0516C36.945 19.2827 36.497 18.536 35.7076 17.896C34.9183 17.2347 33.873 16.904 32.5716 16.904C31.3556 16.904 30.3636 17.224 29.5956 17.864C28.8276 18.4827 28.4436 19.3573 28.4436 20.488C28.4436 21.2987 28.6676 21.96 29.1156 22.472C29.585 22.984 30.1503 23.3787 30.8116 23.656C31.4943 23.912 32.4436 24.2107 33.6596 24.552C35.1316 24.9573 36.3156 25.3627 37.2116 25.768C38.1076 26.152 38.8756 26.76 39.5156 27.592C40.1556 28.4027 40.4756 29.512 40.4756 30.92C40.4756 32.008 40.1876 33.032 39.6116 33.992C39.0356 34.952 38.1823 35.7307 37.0516 36.328C35.921 36.9253 34.5876 37.224 33.0516 37.224ZM47.6729 14.696V37H44.7609V14.696H47.6729ZM75.2599 14.856V37H72.3479V20.488L64.9879 37H62.9399L55.5479 20.456V37H52.6359V14.856H55.7719L63.9639 33.16L72.1559 14.856H75.2599ZM95.1104 21.224C95.1104 23.08 94.4704 24.6267 93.1904 25.864C91.9317 27.08 90.001 27.688 87.3984 27.688H83.1104V37H80.1984V14.696H87.3984C89.9157 14.696 91.825 15.304 93.1264 16.52C94.449 17.736 95.1104 19.304 95.1104 21.224ZM87.3984 25.288C89.0197 25.288 90.2144 24.936 90.9824 24.232C91.7504 23.528 92.1344 22.5253 92.1344 21.224C92.1344 18.472 90.5557 17.096 87.3984 17.096H83.1104V25.288H87.3984ZM101.642 34.632H109.45V37H98.7296V14.696H101.642V34.632ZM115.454 17.064V24.52H123.582V26.92H115.454V34.6H124.542V37H112.542V14.664H124.542V17.064H115.454ZM37.3448 82.632H45.1528V85H34.4328V62.696H37.3448V82.632ZM51.1573 62.696V85H48.2453V62.696H51.1573ZM73.0163 69.16C72.3976 67.8587 71.5016 66.856 70.3283 66.152C69.1549 65.4267 67.7896 65.064 66.2323 65.064C64.6749 65.064 63.2669 65.4267 62.0083 66.152C60.7709 66.856 59.7896 67.88 59.0643 69.224C58.3603 70.5467 58.0083 72.0827 58.0083 73.832C58.0083 75.5813 58.3603 77.1173 59.0643 78.44C59.7896 79.7627 60.7709 80.7867 62.0083 81.512C63.2669 82.216 64.6749 82.568 66.2323 82.568C68.4083 82.568 70.2003 81.9173 71.6083 80.616C73.0163 79.3147 73.8376 77.5547 74.0723 75.336H65.1763V72.968H77.1763V75.208C77.0056 77.0427 76.4296 78.728 75.4483 80.264C74.4669 81.7787 73.1763 82.984 71.5763 83.88C69.9763 84.7547 68.1949 85.192 66.2323 85.192C64.1629 85.192 62.2749 84.712 60.5683 83.752C58.8616 82.7707 57.5069 81.416 56.5043 79.688C55.5229 77.96 55.0323 76.008 55.0323 73.832C55.0323 71.656 55.5229 69.704 56.5043 67.976C57.5069 66.2267 58.8616 64.872 60.5683 63.912C62.2749 62.9307 64.1629 62.44 66.2323 62.44C68.6003 62.44 70.6909 63.0267 72.5043 64.2C74.3389 65.3733 75.6723 67.0267 76.5043 69.16H73.0163ZM98.2105 62.696V85H95.2985V74.888H83.9385V85H81.0265V62.696H83.9385V72.488H95.2985V62.696H98.2105ZM116.911 62.696V65.064H110.831V85H107.919V65.064H101.807V62.696H116.911Z" fill="#464646"/>
</g>
</g>
<defs>
<filter id="filter0_ddd_136_6" x="25.3396" y="14.408" width="102.203" height="73.784" filterUnits="userSpaceOnUse" color-interpolation-filters="sRGB">
<feFlood flood-opacity="0" result="BackgroundImageFix"/>
<feColorMatrix in="SourceAlpha" type="matrix" values="0 0 0 0 0 0 0 0 0 0 0 0 0 0 0 0 0 0 127 0" result="hardAlpha"/>
<feOffset dx="2" dy="2"/>
<feComposite in2="hardAlpha" operator="out"/>
<feColorMatrix type="matrix" values="0 0 0 0 0 0 0 0 0 0 0 0 0 0 0 0 0 0 0.3 0"/>
<feBlend mode="normal" in2="BackgroundImageFix" result="effect1_dropShadow_136_6"/>
<feColorMatrix in="SourceAlpha" type="matrix" values="0 0 0 0 0 0 0 0 0 0 0 0 0 0 0 0 0 0 127 0" result="hardAlpha"/>
<feOffset dx="1" dy="1"/>
<feComposite in2="hardAlpha" operator="out"/>
<feColorMatrix type="matrix" values="0 0 0 0 0 0 0 0 0 0 0 0 0 0 0 0 0 0 0.6 0"/>
<feBlend mode="normal" in2="effect1_dropShadow_136_6" result="effect2_dropShadow_136_6"/>
<feColorMatrix in="SourceAlpha" type="matrix" values="0 0 0 0 0 0 0 0 0 0 0 0 0 0 0 0 0 0 127 0" result="hardAlpha"/>
<feOffset dx="3" dy="3"/>
<feComposite in2="hardAlpha" operator="out"/>
<feColorMatrix type="matrix" values="0 0 0 0 0 0 0 0 0 0 0 0 0 0 0 0 0 0 0.1 0"/>
<feBlend mode="normal" in2="effect2_dropShadow_136_6" result="effect3_dropShadow_136_6"/>
<feBlend mode="normal" in="SourceGraphic" in2="effect3_dropShadow_136_6" result="shape"/>
</filter>
<clipPath id="clip0_136_6">
<rect width="150" height="100" rx="3" fill="white"/>
</clipPath>
</defs>
</svg>
